<svg width="23" height="35" viewBox="0 0 23 35" fill="none" xmlns="http://www.w3.org/2000/svg">
<path fill-rule="evenodd" clip-rule="evenodd" d="M22.9993 8.5003C22.9993 13.154 19.2173 16.9744 14.5636 16.9744H7.06397C3.16654 16.9744 0 13.7693 0 9.87203C0.0966719 5.30752 3.9427 2.22179 8.25615 2.87226C13.9379 -3.27889 23.0946 1.31616 22.9993 8.5003ZM7.05107 4.07733C3.87168 4.07733 1.28203 6.67984 1.28203 9.87203C1.28203 13.0642 3.87168 15.6795 7.06392 15.6795H10.0894C9.51252 15.3078 8.97409 14.7949 8.49971 14.3078H7.06388C4.58958 14.3078 2.57685 12.295 2.57685 9.82073C2.57685 7.34643 4.58962 5.34651 7.06388 5.34651C9.89256 5.48577 10.3777 7.00642 12.6022 9.11563C13.2225 9.71107 14.0882 8.85159 13.5252 8.21823C10.6789 5.22176 9.94561 4.2338 7.05107 4.07733ZM21.7044 8.4618C21.6662 1.98393 14.0336 -0.88887 9.69199 3.24403C10.1279 3.4235 10.5381 3.62865 10.9227 3.88507C14.7782 0.875436 20.3554 3.49636 20.4096 8.4618C20.5567 13.2455 14.564 16.4879 10.4227 12.5899L6.99977 9.16694C6.38883 8.5825 5.4997 9.42272 6.07672 10.0643L9.51252 13.5129C13.8094 17.7537 21.4628 15.2644 21.7044 8.4618Z" fill="black"/>
</svg>
