<svg width="29" height="28" viewBox="0 0 29 28" fill="none" xmlns="http://www.w3.org/2000/svg">
<path d="M7.88281 12.0605V9.81137C7.88281 9.67824 7.88281 9.62499 8.06159 9.62499C9.59414 9.62499 10.8398 9.53671 11.4583 9.89125C12.0782 10.2444 12.1042 10.732 12.1143 10.8778C12.1244 11.0235 12.12 11.2323 11.8317 11.741C11.5433 12.2497 10.253 12.2595 9.32165 12.2595H8.08898C7.9376 12.2595 7.88281 12.2063 7.88281 12.0605ZM12.1301 14.4176C12.2729 14.5947 12.3748 14.7997 12.429 15.0185C12.4831 15.2373 12.4882 15.4649 12.4439 15.6858C12.3996 15.9067 12.3069 16.1157 12.1722 16.2988C12.0375 16.4818 11.8638 16.6345 11.663 16.7466C11.3681 16.8672 11.0516 16.9305 10.7317 16.933H8.07456C7.9376 16.933 7.88281 16.933 7.88281 16.7606V14.0981C7.88281 13.9649 7.88281 13.9117 8.06159 13.9117H9.8277C10.9234 13.9117 11.6082 13.8192 12.1301 14.4176Z" fill="white"/>
<path d="M21.7754 13.1852C21.7019 13.0168 21.5904 12.8667 21.4492 12.7458C21.3079 12.625 21.1405 12.5367 20.9593 12.4873C20.5972 12.3911 20.2182 12.3708 19.8474 12.4275C19.4766 12.4843 19.1224 12.6169 18.8083 12.8166C18.4952 13.1241 18.2929 13.5218 18.2316 13.9503C18.2316 14.1002 18.2316 14.1283 18.4147 14.1283H21.8316C22.0003 14.1283 22.0003 14.1283 21.9858 13.9223C21.9697 13.6647 21.8989 13.4135 21.7754 13.1852ZM21.7754 13.1852C21.7019 13.0168 21.589 12.8667 21.4477 12.7458C21.3065 12.625 21.1405 12.5367 20.9593 12.4873C20.5972 12.3911 20.2182 12.3708 19.8474 12.4275C19.4766 12.4843 19.1224 12.6169 18.8083 12.8166C18.4952 13.1241 18.2914 13.5218 18.2302 13.9503C18.2302 14.1002 18.2302 14.1283 18.4133 14.1283H21.8316C22.0003 14.1283 22.0003 14.1283 21.9858 13.9223C21.9697 13.6647 21.896 13.4135 21.7725 13.1852M23.3771 0H6.50895C5.01771 0 3.58755 0.575797 2.53309 1.60072C1.47862 2.62565 0.88623 4.01574 0.88623 5.46521V21.8608C0.88623 23.3103 1.47862 24.7004 2.53309 25.7253C3.58755 26.7502 5.01771 27.326 6.50895 27.326H23.3771C24.8683 27.326 26.2985 26.7502 27.353 25.7253C28.4074 24.7004 28.9998 23.3103 28.9998 21.8608V5.46521C28.9998 4.01574 28.4074 2.62565 27.353 1.60072C26.2985 0.575797 24.8683 0 23.3771 0ZM17.8668 8.70229C17.8668 8.59439 17.8668 8.55235 17.9937 8.55235H22.5481V9.70144C22.5481 9.70144 22.5524 9.78272 22.4775 9.78272H18.0644C17.8668 9.78272 17.8668 9.78272 17.8668 9.59214V8.70229ZM13.6498 18.7457C11.9197 19.6607 9.01178 19.2922 5.5675 19.2922V7.96519H11.0634C12.469 7.96519 14.1414 8.30711 14.5912 9.75469C14.8248 10.3869 14.8106 11.0807 14.5513 11.7034C14.292 12.3261 13.8058 12.8341 13.1856 13.1305C13.7573 13.3361 14.2564 13.6967 14.6239 14.1695C14.9914 14.6422 15.2119 15.2074 15.2592 15.7982C15.3065 16.3889 15.1787 16.9805 14.8909 17.5028C14.6032 18.0252 14.1675 18.4565 13.6354 18.7457H13.6498ZM24.1225 15.5212H18.4998C18.3455 15.5212 18.2042 15.6025 18.2316 15.7944C18.4003 16.6002 18.7794 17.448 19.6387 17.5713C20.0924 17.7026 20.5783 17.6824 21.0188 17.514C21.4594 17.3456 21.8293 17.0387 22.0695 16.6423C22.0695 16.6423 22.1401 16.5596 22.1819 16.5596H24.01C24.01 16.5596 24.1225 16.5596 24.0936 16.6549C23.9009 17.1855 23.6155 17.6799 23.2502 18.1165C22.7616 18.5701 22.1721 18.9082 21.5273 19.1045C20.8825 19.3008 20.1998 19.35 19.5323 19.2484C18.8648 19.1467 18.2303 18.8969 17.6782 18.5183C17.1261 18.1397 16.6712 17.6426 16.3487 17.0655C16.1504 16.6806 16.0267 16.2635 15.9839 15.8351C15.7332 14.7583 15.9249 13.6289 16.5181 12.6874C17.1113 11.7459 18.0593 11.0667 19.1601 10.7945C22.3506 10.1246 24.3748 12.2561 24.3748 15.2619C24.3795 15.2971 24.3759 15.3328 24.3641 15.3663C24.3524 15.3999 24.3329 15.4304 24.3071 15.4554C24.2813 15.4805 24.25 15.4994 24.2155 15.5108C24.181 15.5222 24.1442 15.5258 24.1081 15.5212H24.1225ZM20.9738 12.4873C20.612 12.3898 20.2327 12.3697 19.8622 12.4284C19.4917 12.4845 19.1601 12.5532 18.8227 12.8166C18.4853 13.0787 18.3066 13.5215 18.246 13.9503C18.246 14.1002 18.246 14.1283 18.4291 14.1283H21.8316C22.0003 14.1283 22.0003 14.1283 21.9858 13.9223C21.9697 13.6647 21.8989 13.4135 21.7754 13.1852C21.7019 13.0168 21.5904 12.8667 21.4492 12.7458C21.3079 12.625 21.1405 12.5367 20.9593 12.4873H20.9738Z" fill="white"/>
</svg>
