<svg width="23" height="35" viewBox="0 0 23 35" fill="none" xmlns="http://www.w3.org/2000/svg">
<path d="M5.60257 34.9995C8.70353 34.9995 11.2051 32.4832 11.2051 29.364V23.7285H5.60257C2.50161 23.7285 0 26.2448 0 29.364C0 32.4832 2.50161 34.9995 5.60257 34.9995Z" fill="black"/>
<path d="M0 17.4988C0 14.3796 2.50161 11.8633 5.60257 11.8633H11.2051V23.1343H5.60257C2.50161 23.1343 0 20.618 0 17.4988Z" fill="black"/>
<path d="M0 5.63551C0 2.51632 2.50161 0 5.60257 0H11.2051V11.271H5.60257C2.50161 11.271 0 8.75469 0 5.63551Z" fill="black"/>
<path d="M11.7949 0H17.3975C20.4984 0 23.0001 2.51632 23.0001 5.63551C23.0001 8.75469 20.4984 11.271 17.3975 11.271H11.7949V0Z" fill="black"/>
<path d="M23.0001 17.4988C23.0001 20.618 20.4984 23.1343 17.3975 23.1343C14.2965 23.1343 11.7949 20.618 11.7949 17.4988C11.7949 14.3796 14.2965 11.8633 17.3975 11.8633C20.4984 11.8633 23.0001 14.3796 23.0001 17.4988Z" fill="black"/>
</svg>
