<svg width="29" height="27" viewBox="0 0 29 27" fill="none" xmlns="http://www.w3.org/2000/svg">
<path d="M0.75293 1.90704C0.75293 0.853676 1.65347 0 2.76458 0H26.134C27.2451 0 28.1457 0.853676 28.1457 1.90704V24.7183C28.1457 25.7717 27.2451 26.6254 26.134 26.6254H2.76458C1.65347 26.6254 0.75293 25.7717 0.75293 24.7183V1.90704ZM9.21557 22.2888V10.2657H5.10495V22.2888H9.21557ZM7.16112 8.62329C8.5941 8.62329 9.48607 7.70139 9.48607 6.54651C9.46039 5.36667 8.59581 4.46973 7.18851 4.46973C5.78121 4.46973 4.86184 5.36834 4.86184 6.54651C4.86184 7.70139 5.75381 8.62329 7.13372 8.62329H7.16112ZM15.5638 22.2888V15.5742C15.5638 15.2147 15.5912 14.8553 15.7008 14.599C15.997 13.8818 16.6732 13.138 17.81 13.138C19.2978 13.138 19.8919 14.2396 19.8919 15.8571V22.2888H24.0025V15.3928C24.0025 11.6985 21.9754 9.98118 19.2704 9.98118C17.0893 9.98118 16.1117 11.146 15.5638 11.9664V12.008H15.5364L15.5638 11.9664V10.2657H11.4549C11.5063 11.394 11.4549 22.2888 11.4549 22.2888H15.5638Z" fill="white"/>
</svg>
