<svg width="30" height="27" viewBox="0 0 30 27" fill="none" xmlns="http://www.w3.org/2000/svg">
<path d="M1.45072 0H27.5637C27.9485 0 28.3175 0.152844 28.5896 0.424907C28.8616 0.69697 29.0145 1.06597 29.0145 1.45072V24.6623C29.0145 25.0471 28.8616 25.416 28.5896 25.6881C28.3175 25.9602 27.9485 26.113 27.5637 26.113H1.45072C1.06597 26.113 0.69697 25.9602 0.424907 25.6881C0.152844 25.416 0 25.0471 0 24.6623V1.45072C0 1.06597 0.152844 0.69697 0.424907 0.424907C0.69697 0.152844 1.06597 0 1.45072 0ZM14.5943 12.5966L5.29224 4.69744L3.41355 6.90834L14.6131 16.4178L25.6111 6.90109L23.7135 4.70615L14.5943 12.5966Z" fill="white"/>
</svg>
