<svg width="37" height="33" viewBox="0 0 37 33" fill="none" xmlns="http://www.w3.org/2000/svg">
<path d="M1.83333 0H34.8333C35.3196 0 35.7859 0.193154 36.1297 0.536971C36.4735 0.880787 36.6667 1.3471 36.6667 1.83333V31.1667C36.6667 31.6529 36.4735 32.1192 36.1297 32.463C35.7859 32.8068 35.3196 33 34.8333 33H1.83333C1.3471 33 0.880787 32.8068 0.536971 32.463C0.193154 32.1192 0 31.6529 0 31.1667V1.83333C0 1.3471 0.193154 0.880787 0.536971 0.536971C0.880787 0.193154 1.3471 0 1.83333 0ZM18.4433 15.9188L6.688 5.93633L4.31383 8.73033L18.4672 20.7478L32.3657 8.72117L29.9677 5.94733L18.4433 15.9188Z" fill="#47B13F"/>
</svg>
