<svg width="24" height="41" viewBox="0 0 24 41" fill="none" xmlns="http://www.w3.org/2000/svg">
<path d="M14.2621 0.326738C13.9087 0.65046 11.1602 6.27176 11.1602 6.27176L9.11523 14.7728L17.0727 14.0209C17.0727 14.0209 23.6919 1.335 23.8261 1.04162C24.0649 0.508831 24.1925 0.289645 23.2796 0.289645C22.3668 0.286273 14.5925 0.0232483 14.2621 0.326738Z" fill="#176CC7"/>
<path d="M18.3816 13.4942C17.9857 13.275 6.32436 13.0862 6.04951 13.4942C5.80084 13.8652 5.83683 15.5613 5.9579 15.7805C6.07896 15.9997 9.99879 17.878 9.99879 17.878L9.99552 18.5625C9.99552 18.5625 10.2115 19.0987 12.3972 19.0987C14.5828 19.0987 14.8086 18.6434 14.8086 18.6434L14.8282 17.9521C14.8282 17.9521 18.2606 16.1852 18.4405 16.03C18.6237 15.8716 18.7775 13.7134 18.3816 13.4942ZM14.789 16.3032C14.789 16.3032 14.7792 15.8311 14.5534 15.7131C14.3276 15.595 10.6925 15.6153 10.3849 15.6321C10.0773 15.649 10.0773 16.2155 10.0773 16.2155L7.59062 14.9678V14.7183L16.8503 14.7857L16.8667 15.069L14.789 16.3032Z" fill="#FCC417"/>
<path d="M11.0468 16.1522C10.7392 16.1522 10.5625 16.4827 10.5625 17.0526C10.5625 17.5854 10.7392 18.0339 11.1286 18.0001C11.4492 17.9732 11.5605 17.4673 11.531 17.0189C11.5016 16.4861 11.4361 16.1522 11.0468 16.1522Z" fill="#FDFFFF"/>
<path d="M1.1377 29.4888C1.1377 37.5684 8.22481 41.1664 12.9365 40.9944C18.1324 40.8022 24.3557 36.6276 23.9794 28.9189C23.6228 21.615 17.6612 18.1518 12.498 18.1889C6.4972 18.2327 1.1377 22.431 1.1377 29.4888Z" fill="#FCC417"/>
<path d="M12.7702 39.5877C12.6884 39.5877 12.6034 39.5877 12.5216 39.5843C10.0676 39.5 7.64302 38.4344 5.86961 36.6641C3.97186 34.769 2.93137 32.2062 2.94446 29.4512C2.97391 22.7238 8.68024 19.6046 12.551 19.6046H12.5837C17.8287 19.6282 22.1346 23.8299 22.2557 29.5253C22.3081 32.0612 21.3003 34.7218 19.324 36.7248C17.4786 38.5896 15.0312 39.5877 12.7702 39.5877ZM12.5445 20.7242C9.07288 20.7242 3.93914 23.6511 3.92605 29.4512C3.91624 33.7877 7.17513 38.2456 12.6033 38.4344C14.6712 38.5019 16.8013 37.6858 18.5224 35.9425C20.3089 34.1316 21.3134 31.7981 21.2774 29.5388C21.1988 24.6392 17.3117 20.741 12.5935 20.7208C12.5804 20.7208 12.5543 20.7242 12.5445 20.7242Z" fill="#FA912C"/>
<path d="M10.5752 19.335C10.3495 19.0146 7.79077 19.0753 5.37277 21.51C3.03985 23.8603 2.78791 26.0758 3.23617 26.2039C3.74333 26.3489 4.36173 24.002 6.49834 22.0293C8.46152 20.2218 11.0268 19.9723 10.5752 19.335ZM20.473 28.0586C19.6844 28.1733 20.5024 30.6079 18.6734 33.3326C17.0865 35.6964 15.2869 36.5529 15.4963 37.0722C15.7777 37.7669 18.6603 36.037 19.9953 33.2179C21.2059 30.6652 21.0619 27.9709 20.473 28.0586Z" fill="#FEFFFA"/>
<path d="M9.93066 24.8678C9.76051 25.1274 9.9143 27.4036 10.0157 27.5048C10.212 27.7071 11.7041 26.9821 11.7041 26.9821L11.6484 33.0687C11.6484 33.0687 10.5523 33.0552 10.4378 33.0991C10.212 33.1867 10.2415 35.5337 10.4084 35.6484C10.5752 35.763 15.048 35.8237 15.2182 35.5911C15.3883 35.3584 15.3458 33.3048 15.2673 33.2104C15.1266 33.035 14.0566 33.1058 14.0566 33.1058C14.0566 33.1058 14.1482 24.1428 14.1188 23.8561C14.0893 23.5695 13.7818 23.3908 13.4153 23.4785C13.0489 23.5661 10.0386 24.6992 9.93066 24.8678Z" fill="#FA912C"/>
<path d="M0.00397376 0.150726C-0.202161 0.346308 7.68005 14.8126 7.68005 14.8126C7.68005 14.8126 9.00193 14.988 11.9533 15.015C14.9046 15.0419 16.3672 14.8396 16.3672 14.8396C16.3672 14.8396 10.2387 0.295726 9.87227 0.150726C9.69231 0.0765396 7.2645 0.0495628 4.89232 0.0225859C2.51686 -0.00776302 0.200293 -0.0381119 0.00397376 0.150726Z" fill="#2E9DF4"/>
</svg>
