<svg width="25" height="41" viewBox="0 0 25 41" fill="none" xmlns="http://www.w3.org/2000/svg">
<path d="M1 29.2811C1 37.3302 8.40742 40.7466 13.2483 40.6022C18.8887 40.4342 24.8415 36.1544 24.4552 28.4748C24.089 21.1984 17.9178 17.9634 12.6167 18.0003C6.45563 18.0473 1 22.2499 1 29.2811Z" fill="#CECDD2"/>
<path d="M12.9467 39.1014C12.8627 39.1014 12.7754 39.1014 12.6914 39.098C10.1719 39.014 7.68259 37.9525 5.8618 36.1888C3.91337 34.3008 2.84509 31.7477 2.85852 29.0031C2.88876 22.3011 8.74751 19.1937 12.7216 19.1937H12.7552C18.1403 19.2172 22.5613 23.403 22.6856 29.077C22.7393 31.6033 21.7046 34.2538 19.6756 36.2493C17.7809 38.107 15.2681 39.1014 12.9467 39.1014ZM12.7149 20.309C9.15063 20.309 3.87977 23.225 3.86634 29.0031C3.85626 33.3233 7.20219 37.7644 12.7754 37.9525C14.8985 38.0197 17.0855 37.2067 18.8525 35.4699C20.6867 33.6659 21.7181 31.3412 21.6811 29.0904C21.5938 24.2093 17.6028 20.3258 12.7586 20.3023C12.7519 20.3023 12.725 20.309 12.7149 20.309Z" fill="#9B9B9D"/>
<path d="M10.7829 19.0598C10.5511 18.7407 8.17602 18.8314 5.61954 21.0318C3.07985 23.2187 2.70024 25.6375 3.15711 25.7651C3.67782 25.9096 4.31274 23.5715 6.50641 21.6062C8.52204 19.809 11.2431 19.6948 10.7829 19.0598ZM20.7905 27.8782C19.9809 27.9924 20.8207 30.4179 18.9428 33.1323C17.3135 35.4872 15.4659 36.3405 15.6809 36.8578C15.9698 37.5498 18.9294 35.8265 20.3 33.018C21.5396 30.4783 21.3918 27.7942 20.7905 27.8782Z" fill="#FEFFFA"/>
<path d="M10.3669 27.4199C10.7163 27.4233 11.0287 26.9496 11.3176 26.6607C11.9324 26.0426 12.5774 25.5521 13.3131 26.2173C15.1204 27.86 11.4923 29.5262 10.115 31.8039C9.08701 33.5037 8.87873 34.8105 9.16427 35.1599C9.44982 35.5093 16.4004 35.4925 16.4944 35.3178C16.5885 35.1431 16.6859 32.8151 16.5247 32.7042C16.3634 32.5934 12.9469 32.6572 12.9469 32.6572C12.9469 32.6572 13.2325 31.992 14.4049 30.9775C15.6915 29.8655 16.7229 28.337 16.4474 26.5297C15.8763 22.7941 12.1138 22.6563 10.4845 23.9564C8.89552 25.2229 9.23818 27.4065 10.3669 27.4199Z" fill="#9B9B9D"/>
<path d="M18.8047 13.2394C18.3982 13.021 6.42544 12.8329 6.14325 13.2394C5.88794 13.6089 6.03239 15.5473 6.12981 15.7791C6.3045 16.1822 10.1711 17.9392 10.1711 17.9392L10.0972 18.7387C10.0972 18.7387 10.413 18.8193 12.6604 18.8193C14.9079 18.8193 15.3513 18.7051 15.3513 18.7051L15.358 17.9828C15.358 17.9828 18.8383 16.2897 19.013 16.0546C19.1608 15.8597 19.2112 13.4578 18.8047 13.2394ZM15.2404 16.3032C15.2404 16.3032 15.3513 15.8093 15.1195 15.6951C14.8877 15.5775 10.9102 15.6313 10.5944 15.6481C10.2786 15.6649 10.2786 16.2293 10.2786 16.2293L7.72552 14.7075V14.4589L17.2325 14.526L17.2493 14.8082L15.2404 16.3032Z" fill="#CECDD2"/>
<path d="M14.2561 0.324873C13.9029 0.646626 11.1555 6.23374 11.1555 6.23374L9.11133 14.6831L17.0656 13.9357C17.0656 13.9357 23.6822 1.327 23.8163 1.03541C24.0551 0.505859 24.1826 0.288005 23.2701 0.288005C22.3576 0.284654 14.5865 0.023229 14.2561 0.324873Z" fill="#176CC7"/>
<path d="M0.00397219 0.149809C-0.202081 0.344202 7.677 14.7226 7.677 14.7226C7.677 14.7226 8.99835 14.8968 11.9485 14.9237C14.8987 14.9505 16.3607 14.7494 16.3607 14.7494C16.3607 14.7494 10.2347 0.293928 9.86836 0.149809C9.68847 0.0760742 7.26162 0.0492614 4.89038 0.0224486C2.51586 -0.00771581 0.200213 -0.0378802 0.00397219 0.149809Z" fill="#2E9DF4"/>
</svg>
